<?xml version="1.0" encoding="utf-8"?>
<!-- Generator: Adobe Illustrator 23.1.0, SVG Export Plug-In . SVG Version: 6.00 Build 0)  -->
<svg version="1.1" id="Layer_1" xmlns="http://www.w3.org/2000/svg" xmlns:xlink="http://www.w3.org/1999/xlink" x="0px" y="0px"
	 viewBox="0 0 500 500" style="enable-background:new 0 0 500 500;" xml:space="preserve">
<style type="text/css">
	.st0{fill:#E79523;}
	.st1{fill:#FFFF31;}
	.st2{fill:#E76F00;}
	.st3{fill:#5382A1;}
	.st4{fill:#B57736;}
</style>
<g>
	<g>
		<path class="st0" d="M395.07,379.9c0,0-17.29,17.28-19.92,18.28c-12.96,4.92-26.52,7.69-39.82,11.38
			c-9.19,2.55-18.56,4.2-27.95,5.77c-12.3,2.04-24.71,3.41-37.13,3.81c-21.9,0.69-43.8,0.47-65.66-1.95
			c-8.2-0.9-16.4-1.9-24.59-2.82c-9.4-1.06-18.77-2.97-27.85-5.89c-7.6-2.45-15.8-3.19-22.92-6.89
			c-6.88-3.57-14.38-5.84-20.88-10.14c-0.7-0.47-1.75-1.61-2.61-0.49l-3.13-3.3l-4.47-7.74c0,0,2.89-8.64,6.95-8.01
			c4.06,0.63,1.84-7.01,1.84-7.01l7.27-2.31l0.98-4.46c4.42-0.33,8.68,1.26,13.06,1.44c1.28,0.05,2.34,0.76,3.3,1.71
			c2.16,2.11,4.13,2.02,6.08-0.08c0.25-0.28,0.39-0.68,0.68-0.91c1.18-0.87,2.56-1.01,3.36,0.24c0.87,1.38-0.71,1.58-1.51,1.99
			c-0.73,0.38-1.99,0.24-1.34,1.65c0.43,0.96,1.84,1.9,0.38,2.91c-1.06,0.74-2.2,0-3.21-0.56c-0.79-0.43-1.57-0.89-2.52-0.74
			c-0.71,0.12-1.42,0.66-0.87,1.24c2.76,2.88,3.27,7.8,8.04,8.88c0.8,0.18,1.76,0.38,2.03,1.48c-1.04,1.13-2.23,0.65-3.05-0.02
			c-2.09-1.71-4.94-2-6.92-3.86c-1.42-1.34-2.27-0.61-2.76,0.91c-1.29,4.08-3.88,7.39-6.27,10.83c-1.38,1.98-2.8,3.06-5.36,2.06
			c-0.76-0.3-2.22-1.68-2.84,0.15c-0.44,1.3,0.8,2.11,1.78,2.64c2.47,1.31,5.2,2.26,7.52,3.67c2.54,1.56,4.39,1.34,6.85,0.27
			c1.83-0.8,2.28-2.25,2.92-3.73c0.92-2.15,2.16-3.16,4.36-1.48c1.12,0.86,2.63,1.2,3.54,0.31c3.16-3.03,2.05,1.01,2.79,1.84
			c1.84-1.08,3.51-1.99,5.09-3.03c3.28-2.15,3.35-2.65,1.15-6.02c-2.11-3.23-1.97-5.62,0.48-8.58c1.65-1.99,3.67-1.8,4.8,0.54
			c0.55,1.14,0.92,2.37,1.27,3.6c0.64,2.25,3,2.15,4.46,3.27c1.17,0.88,1.96-0.3,2.83-1.13c0.93-0.88,6.69,0.76,6.49,1.75
			c-0.66,3.2,1.81,2.08,2.77,1.88c2.38-0.48,4.16-2.13,4.37-4.63c0.22-2.52,2.14-2.47,3.69-3.15c2.46-1.09,1.14,2.14,2.84,2.2
			c0.42-1.32,0.73-2.78,1.34-4.1c0.81-1.81,2.4-3.96,4.24-3c3.86,2.02,6.86,1.06,10.22-0.95c2.33-1.41,5.44-2.33,7.01-4.06
			c1.37-1.5,2.77-3.75,3.81-5.89c1.48-3.02,2.88-3.59,6.16-2.32c2.97,1.14,4.94,1.09,6.25-2.43c0.63-1.67,3.54-2.56,1.34-5.04
			c-0.15-0.18,0.01-0.78,0.2-1.08c1.33-2.11,8.67-2.83,9.73-0.6c1.27,2.64,2.96,1.97,4.48,1.3c1.24-0.55,3.63,0.3,3.63-1.86
			c0-1.82-1.87-2.54-3.43-3.17c-0.42-0.17-1.04,0-1.18-0.68c0.93-1.12,1.75-2.06,2.54-2.82c2.88-2.84,5.13-3.33,9.34-2.2
			c0.95,0.25,2.02,0.6,3.21,1.02c0.65,0.23,1.39,0.51,0.7,1.21c-1.64,1.64-0.62,2.46,0.84,3.09c1.87,0.81,3.74,0.08,4.81-1.23
			c0.79-0.98-0.13-2.45-1.48-3.01c-0.8-0.34-1.37-0.71-1.13-1.65c0.18-0.7,0.61-1.14,1.18-1.34l0.46-0.11
			c0.12-0.02,0.23-0.02,0.35-0.02c1.19,0.02,2.4-0.4,3.32,1.12c1.11,1.83,2.9,1.89,3.65-0.22c0.61-1.72,1.62-1.67,2.9-1.67
			c2.71,0.01,5.31,0.51,7.71,1.81c0.75,0.41,1.3,1.38,2.34,0.88c2.07-0.96,3.16,0.31,3.95,1.86c0.64,1.27,2.3,1.64,2.57,3.21
			c0.08,0.49,0.73,0.68,1.27,0.48c0.73-0.28,0.85-0.95,0.74-1.58c-0.08-0.46-0.45-0.88-0.68-1.31c-1.04-2.04,0.09-3.28,1.63-4.39
			c2.02-1.46,3.93-1.34,5.94,0.12c1.92,1.39,1.26,2.67,0.15,4.11c-0.38,0.49-0.58,1.13-0.83,1.72c-1.31,3.1-1.01,3.65,2.23,3.68
			c2.44,0.03,4.79-0.03,6.88,1.67c1.37,1.12,2.03,0.03,2.29-1.28c0.15-0.8-1.12-1.58,0.17-2.55c2.22,1.4,4.32,3.1,6.52,5.44
			c0.9-3.4,2.44-6.05,1.3-9.26c-0.35-1.01-0.66-3.4,1.08-2.84c3.81,1.25,3.88-1.16,4.64-3.5c0.48-1.46,1.12-2.81,1.08-4.4
			c-0.04-1.58,0.89-2.29,2.41-2.3c1.15-0.01,2.3,0.02,3.45-0.02c2.07-0.07,5.03-2.36,5.92-4.37c5.13,1.94,11.68,5.03,12.67,8.51
			c1.66,5.83,10.73,3.4,10.73,3.4s5.86,4.13,5.95,9c0.09,4.87,4.51,3.97,10.6,6.45c6.09,2.47,8.57,5.19,9.72,6.05
			c1.16,0.85-0.32-0.99,1.16,0.85c0.92,1.14,2.12,6.48,2.9,10.34c0.47,2.34,0.78,4.15,0.78,4.15l4.06,0.96l1.48,1.48L395.07,379.9z"
			/>
		<path class="st1" d="M356.08,335.07c0.02,2.34-2.91,6.68-4.83,7.39c-0.56,0.2-1.14,0.19-1.38-0.22c-1.5-2.61-3.18-1.72-5.06-0.46
			c-0.56,0.37-1.72,0.56-2.19,0.23c-3.25-2.23-8.1-2.34-9.53-7.03c-0.26-0.85-0.6-1.67-0.85-2.53c-0.34-1.18-1.37-2.39-0.49-3.6
			c0.95-1.29,2.2,0.42,3.11,0.07c4.35-1.67,5.85,1.22,7.36,4.29c0.98,2,1.93,2.16,4.11,0.86c2.24-1.34,5.23-1.58,7.95-1.89
			C356.43,331.93,355.96,333.88,356.08,335.07z"/>
		<path class="st1" d="M366.74,364.23c-3.65,0.66-6.12-2.83-9.66-2.74c-0.71,0.02-0.95-1.08-1.04-1.86
			c-0.1-0.85-0.48-1.48-1.41-1.48c-3.93-0.01-3.33-2.56-2.86-5.03c0.14-0.74,0.32-1.49,0.56-2.21c0.75-2.24,2.33-2.83,3.97-1.09
			c2.61,2.76,5.98,3.25,9.35,3.72c2.05,0.29,3.22,1.35,4.03,3c0.33,0.67,0.5,1.39,0.94,2.04c0.71,1.04,2.75,1.6,1.72,3.34
			c-0.94,1.58-2.42,2.6-4.46,2.31C367.51,364.18,367.12,364.23,366.74,364.23z"/>
		<path class="st1" d="M324.32,354.28c0.89,0.02,2.13-0.23,2.48,0.6c1.3,3.06,3.46,3.02,6.34,2.71c3.02-0.33,5.18,2.33,7.7,3.67
			c1.09,0.58,0.49,1.82-0.32,2.59c-0.73,0.7-1.5,1.55-2.61,0.65c-0.48-0.39-0.97-1.41-1.23-1.34c-4.75,1.3-7.12-3.79-11.23-4.13
			c-0.75-0.06-1.61-0.13-2.19-0.54c-0.99-0.7-2.47-1.43-2.16-2.85C321.45,354.08,323.1,354.43,324.32,354.28z"/>
		<path class="st1" d="M348.38,351.33c0.89,2.72-1.75,3.14-3.48,4.14c-0.52,0.3-2.76-3.79-2.59-4.96c0.36-2.5,2.76-1.86,4.19-2.26
			C348.61,347.68,348.4,349.6,348.38,351.33z"/>
		<path class="st1" d="M332.67,323.16c-0.88,2.01-3.84,4.3-5.92,4.37c-1.14,0.04-2.3,0.01-3.45,0.02c-1.52,0.02-2.45,0.73-2.41,2.3
			c0.05,1.59-0.6,2.94-1.08,4.4c-0.76,2.34-0.83,4.75-4.64,3.5c-1.74-0.57-1.43,1.83-1.08,2.84c1.14,3.21-0.4,5.86-1.3,9.26
			c-2.2-2.34-4.3-4.04-6.52-5.44c-1.29,0.98-0.02,1.75-0.17,2.55c-0.26,1.31-0.92,2.4-2.29,1.28c-2.08-1.71-4.44-1.64-6.88-1.67
			c-3.23-0.03-3.53-0.58-2.23-3.68c0.25-0.59,0.45-1.23,0.83-1.72c1.11-1.44,1.77-2.72-0.15-4.11c-2.01-1.46-3.92-1.58-5.94-0.12
			c-1.54,1.11-2.67,2.34-1.63,4.39c0.22,0.44,0.59,0.85,0.68,1.31c0.12,0.63-0.01,1.3-0.74,1.58c-0.54,0.2-1.18,0.01-1.27-0.48
			c-0.27-1.58-1.93-1.94-2.57-3.21c-0.79-1.54-1.87-2.82-3.95-1.86c-1.04,0.49-1.6-0.47-2.34-0.88c-2.4-1.31-4.99-1.81-7.71-1.81
			c-1.28-0.01-2.29-0.05-2.9,1.67c-0.75,2.11-2.54,2.05-3.65,0.22c-0.91-1.52-2.13-1.11-3.32-1.12c-0.12,0-0.23,0-0.35,0.02
			c-0.16,0.02-0.32,0.05-0.46,0.11c-0.58,0.19-1.01,0.64-1.18,1.34c-0.24,0.95,0.33,1.31,1.13,1.65c1.34,0.56,2.27,2.04,1.48,3.01
			c-1.07,1.31-2.94,2.04-4.81,1.23c-1.46-0.63-2.48-1.45-0.84-3.09c0.69-0.69-0.05-0.98-0.7-1.21c-1.19-0.42-2.26-0.77-3.21-1.02
			c-4.2-1.14-6.45-0.64-9.34,2.2c-0.78,0.76-1.61,1.7-2.54,2.82c0.13,0.68,0.75,0.51,1.18,0.68c1.56,0.64,3.43,1.35,3.43,3.17
			c0.01,2.16-2.39,1.31-3.63,1.86c-1.52,0.68-3.21,1.34-4.48-1.3c-1.07-2.23-8.41-1.51-9.73,0.6c-0.19,0.29-0.35,0.9-0.2,1.08
			c2.21,2.48-0.71,3.37-1.34,5.04c-1.31,3.52-3.29,3.57-6.25,2.43c-3.28-1.27-4.68-0.7-6.16,2.32c-1.04,2.14-2.44,4.39-3.81,5.89
			c-1.58,1.74-4.69,2.66-7.01,4.06c-3.36,2.01-6.36,2.97-10.22,0.95c-1.84-0.95-3.43,1.2-4.24,3c-0.61,1.32-0.91,2.78-1.34,4.1
			c-1.71-0.05-0.38-3.29-2.84-2.2c-1.55,0.68-3.47,0.63-3.69,3.15c-0.21,2.5-1.99,4.15-4.37,4.63c-0.96,0.2-3.43,1.31-2.77-1.88
			c0.2-0.99-5.56-2.64-6.49-1.75c-0.87,0.83-1.66,2.01-2.83,1.13c-1.46-1.11-3.82-1.01-4.46-3.27c-0.35-1.22-0.71-2.46-1.27-3.6
			c-1.13-2.34-3.15-2.53-4.8-0.54c-2.45,2.96-2.59,5.36-0.48,8.58c2.2,3.37,2.13,3.86-1.15,6.02c-1.58,1.04-3.26,1.94-5.09,3.03
			c-0.74-0.83,0.37-4.88-2.79-1.84c-0.91,0.89-2.42,0.55-3.54-0.31c-2.2-1.68-3.43-0.68-4.36,1.48c-0.64,1.48-1.09,2.93-2.92,3.73
			c-2.46,1.07-4.3,1.29-6.85-0.27c-2.32-1.41-5.05-2.37-7.52-3.67c-0.98-0.52-2.22-1.34-1.78-2.64c0.62-1.83,2.08-0.45,2.84-0.15
			c2.56,1,3.99-0.08,5.36-2.06c2.39-3.44,4.98-6.75,6.27-10.83c0.48-1.51,1.34-2.24,2.76-0.91c1.98,1.87,4.83,2.15,6.92,3.86
			c0.82,0.67,2.01,1.14,3.05,0.02c-0.27-1.11-1.23-1.31-2.03-1.48c-4.77-1.08-5.28-6-8.04-8.88c-0.55-0.58,0.15-1.11,0.87-1.24
			c0.95-0.15,1.73,0.31,2.52,0.74c1.01,0.56,2.15,1.3,3.21,0.56c1.46-1.01,0.05-1.95-0.38-2.91c-0.65-1.41,0.61-1.28,1.34-1.65
			c0.8-0.41,2.37-0.61,1.51-1.99c-0.8-1.25-2.18-1.11-3.36-0.24c-0.29,0.22-0.43,0.63-0.68,0.91c-1.95,2.11-3.92,2.2-6.08,0.08
			c-0.97-0.95-2.03-1.66-3.3-1.71c-4.38-0.18-8.64-1.77-13.06-1.44c-0.51,0.04-1.01,0.1-1.52,0.19c-0.71,0.13-1.51,0.75-1.92-0.33
			c-0.29-0.75-0.15-1.99,0.45-2.05c3.57-0.37,3.07-3.73,4.35-5.72c1.64-2.55,3.77-2.95,5.41-0.47c0.74,1.12,1.17,1.87,2.6,1.3
			c2.5-1,4.56,0.15,6.19,1.78c1.69,1.7,3.4,2.02,5.54,1.28c0.7-0.25,1.51-0.38,2.24-0.31c3.19,0.32,5.13-0.48,4.73-4.26
			c-0.14-1.28,0.63-2.42,2.06-2.9c1.51-0.51,2.74-1.36,3.05-3.08c0.41-0.14,0.83-0.28,1.24-0.41c1.32,0.82,2.63,0.58,3.22-0.74
			c0.81-1.81-0.68-2.69-1.99-3.5c-1.97-3.66-1.9-4.01,1.13-5.57c1.28,0.46,2.47,1.51,3.96,0.85c1.28-0.56,1.8,0.12,2.4,1.08
			c1.51,2.4,2.59,1.38,3.39-0.57c0.42-1.03,1.15-1.9,1.03-3.2c-0.46-4.69,1.53-7.59,5.84-9.21c4.21-1.58,6.85-5.11,8.01-9.02
			c0.76-2.55,2.24-3.9,3.95-3.71c5.16,0.55,9.8-2.47,14.93-1.72c1.28,0.19,2.54,0.09,3.31,1.42c1.27,2.19,2.49,1.55,3.8-0.05
			c2.34-2.86,3.57-3.07,6.08-0.74c1.04,0.98,1.9,1.08,3.06,0.63c2.98-1.16,6.12-1.62,9.26-2.11c0.25-0.04,0.7,0.02,0.74-0.09
			c0.88-2.47,4.4-2.88,4.56-5.93c0.07-1.48,0.76-2.83,2.09-3.42c1.36-0.6,2.54,0.43,3.27,1.39c1.17,1.55,2.04,2.12,3.95,0.82
			c1.3-0.89,3.27-0.85,4.83-0.22c2.37,0.94,2.96-0.15,3.19-2.19c0.13-1.13,0.53-2.22,0.86-3.32c0.19-0.62,0.79-1.51,1.22-1.22
			c2.43,1.63,4.4,0.13,6.6-0.55c1.51-0.47,2.89,0.6,3.23,2.05c0.55,2.33,1.97,2.71,3.97,2.46c0.38-0.05,0.79-0.06,1.14,0.05
			c1.49,0.45,3.01,1.19,3.4,2.7c0.35,1.39-1.08,2.26-2.1,2.93c-1.27,0.84-2.7,1.44-4.1,2.01c-0.72,0.28-1.54,0.4-1.87,1.17
			c-0.45,1.08-0.79,2.4,0.21,3.17c0.9,0.68,1.63-0.44,2.14-1.08c2.99-3.73,6.77-4.16,11.23-3.33c2.85,0.53,3.4,1.98,2.8,4.26
			c-0.41,1.58-0.25,2.58,1.5,2.65c1.71,0.06,2.46-0.5,1.97-2.58c-0.56-2.39,1.17-3.52,3.37-3.47c4.49,0.08,7.25-2.43,9.36-5.95
			c1.77-2.97,3.72-5.77,6.62-7.76c1.27-0.86,2.54-1.95,4.12-0.71c1.51,1.18,1.06,3,0.53,4.23c-0.82,1.91-1.8,3.29,1.09,4.2
			c0.88,0.28,1,1.67,1.36,2.63c0.63,1.69,1.53,3.36,3.35,3.93c3.47,1.11,4.82,4.27,6.8,6.78c0.64,0.81,0.95,1.96,2.12,1.8
			c2.53-0.36,4.01,0.95,5.47,2.73c1.5,1.84,3.78,1.85,5.94,2.01c0.51,0.04,1.02,0.02,1.54,0.05c2.19,0.13,4.96-0.65,5.49,2.62
			C332.98,322.21,332.89,322.68,332.67,323.16z"/>
	</g>
	<path class="st2" d="M256.16,229.76c20.44,23.48-5.37,44.61-5.37,44.61s51.91-26.74,28.07-60.22
		c-22.27-31.22-39.34-46.73,53.09-100.22C331.96,113.94,186.86,150.09,256.16,229.76z"/>
	<path class="st3" d="M378.89,413.83c0,0,11.99,9.85-13.2,17.48c-47.89,14.47-199.32,18.85-241.39,0.58
		c-15.12-6.56,13.24-15.67,22.16-17.58c9.3-2.01,14.62-1.64,14.62-1.64c-16.82-11.82-108.7,23.21-46.67,33.24
		C283.57,473.28,422.77,433.58,378.89,413.83z"/>
	<path class="st2" d="M278.86,27.57c0,0,44.04,43.95-41.77,111.54c-68.81,54.21-15.69,85.13-0.03,120.44
		c-40.16-36.15-69.64-67.98-49.86-97.6C216.22,118.47,296.63,97.39,278.86,27.57z"/>
	<path class="st3" d="M209.43,474.1c76.33,4.87,193.53-2.7,196.31-38.74c0,0-5.34,13.66-63.08,24.51
		c-65.15,12.23-145.49,10.8-193.15,2.96C149.52,462.83,159.27,470.89,209.43,474.1z"/>
	<path class="st4" d="M405.19,381.71c-1.06-1.44-2.2-2.67-3.29-3.67l-0.83-1.23c-0.06-0.05-0.11-0.11-0.17-0.16l-1.31-1.31
		l-0.76-0.75l-1.03-0.24l-1.66-0.39c-0.36-1.88-0.73-3.75-1.17-5.63c-0.31-1.36-0.64-2.71-1.06-4.14c-0.22-0.72-0.44-1.44-0.83-2.34
		c-0.08-0.2-0.22-0.49-0.37-0.77c-0.05-0.1-0.2-0.34-0.33-0.53l-0.21-0.29l-0.1-0.13l-0.32-0.4l-0.19-0.23l-0.14-0.17l-0.15-0.16
		l-0.09-0.09l-0.15-0.14l-0.11-0.1l-0.06-0.05l-0.18-0.14c-0.12-0.08-0.25-0.16-0.38-0.23c-0.09-0.06-0.43-0.22-0.71-0.31
		l-0.31-0.26c-0.64-0.54-1.33-1.09-2.04-1.6c-1.42-1.02-2.92-1.91-4.44-2.68c-1.54-0.77-3.05-1.43-4.71-2.01
		c-1.63-0.56-3.27-0.97-4.66-1.35c-0.66-0.18-1.32-0.37-1.65-0.54c-0.12-0.05-0.2-0.1-0.26-0.13c0.01,0.02,0.01,0.04,0.01,0.06
		c-0.02-0.01-0.02-0.02-0.03-0.04c-0.07-0.09-0.09-0.08,0.02-0.02v-0.01c-0.03-0.03-0.01-0.15-0.02-0.22l-0.13-1.37
		c-0.08-0.59-0.22-1.16-0.37-1.71c-0.69-2.15-1.81-3.86-3-5.29c-0.6-0.72-1.24-1.37-1.9-2c-0.21-0.2-0.42-0.39-0.64-0.57
		c0.04,0.45,0.04,0.8,0.04,1.07l0.01,0.43l-1.59-2.74c0.5,0.35,0.79,0.6,1.16,0.9c0.13,0.11,0.25,0.22,0.38,0.33
		c-0.06-0.48-0.14-1.09-0.49-1.91c-0.32-0.81-1.22-1.87-2.2-2.34c-0.51-0.27-0.93-0.38-1.36-0.48c-0.41-0.07-0.74-0.09-1.09-0.1
		c-0.27,0-0.58,0.02-0.82,0.04l-0.37,0.04l-1.52,0.18c-1.04,0.13-2.16,0.28-3.34,0.56c-0.06,0.01-0.12,0.03-0.18,0.04
		c-0.01-0.02-0.02-0.03-0.03-0.05c-0.16-0.29-0.32-0.58-0.5-0.86c-0.17-0.25-0.35-0.48-0.53-0.71c-0.72-0.91-1.47-1.59-2.21-2.19
		c-0.75-0.6-1.49-1.11-2.23-1.57c-2.14-1.32-4.26-2.33-6.4-3.23c-0.06-0.25-0.11-0.5-0.23-0.81c-0.12-0.34-0.25-0.69-0.47-1.08
		c-0.19-0.36-0.46-0.75-0.77-1.11c-0.62-0.72-1.49-1.33-2.28-1.63c-1.64-0.65-2.74-0.56-3.61-0.59l-1.07,0.01h-0.21l-0.14-0.01
		l-0.47-0.01l-1.08-0.04l-1.08-0.08c-0.66-0.04-1.17-0.11-1.54-0.19c-0.35-0.1-0.5-0.18-0.57-0.24c-0.05-0.02-0.06-0.06-0.13-0.13
		c-0.28-0.33-0.56-0.66-0.89-1.01c-0.19-0.21-0.4-0.42-0.63-0.63c-1.93-0.46-3.78-0.96-4.55-1.15c-1.44-0.36-4.68-4.72-6.12-5.33
		s-5.04-2.61-6.12-3.41c-0.9-0.66-5.76-4.23-7.28-8.55c-0.04,0.03-0.09,0.06-0.13,0.09c-0.45,0.31-0.88,0.66-1.29,1.04
		c-0.21,0.2-0.42,0.4-0.63,0.61c-0.06,0.33-0.11,0.71-0.11,1.16c0,0.31,0.04,0.67,0.1,0.99c0.08,0.35,0.19,0.71,0.33,1.04
		c0.16,0.32,0.34,0.65,0.54,0.93c0.19,0.24,0.39,0.48,0.61,0.7c0.63,0.57,1.18,0.89,1.66,1.13c-0.08-0.29-0.14-0.5-0.17-0.62
		c0.06,0.09,0.18,0.26,0.43,0.52c0.14,0.14,0.32,0.28,0.55,0.4c0.1,0.06,0.22,0.13,0.35,0.17c-0.25-0.09-0.47-0.16-0.75-0.28
		c-0.13-0.06-0.27-0.12-0.41-0.19c0.03,0.07,0.05,0.15,0.07,0.23l0.13,0.4l0.14,0.38l0.25,0.63c0.18,0.43,0.4,0.88,0.65,1.34
		c0.52,0.93,1.24,1.95,2.34,2.81c0.54,0.43,1.16,0.79,1.81,1.07l0.99,0.37c0.62,0.27,1.19,0.72,1.89,1.59
		c0.7,0.85,1.44,2.07,2.47,3.44c0.38,0.5,0.22,0.27,0.44,0.62c0.1,0.14,0.21,0.34,0.41,0.61c0.18,0.27,0.43,0.61,0.87,1.02
		c0.41,0.38,1.03,0.83,1.79,1.08c0.73,0.26,1.53,0.32,2.11,0.26l0.34-0.04l0.11-0.01c0.05,0.01,0.12-0.01,0.16,0
		c0.18,0.01,0.21,0.02,0.37,0.1c0.15,0.09,0.42,0.29,0.76,0.66c0.17,0.17,0.35,0.39,0.54,0.62c0.4,0.48,0.89,0.98,1.43,1.38
		c1.08,0.83,2.3,1.29,3.35,1.55c1.05,0.25,1.99,0.34,2.77,0.39l1.09,0.08l1.1,0.04l0.27,0.01l-2.16,1.28l6.48,2.47
		c2.7,1.02,5.36,2.19,7.57,3.57c1.07,0.67,2.1,1.46,2.54,2.05l0.15,0.19c0.02,0.05,0.04,0.1,0.08,0.14
		c0.04,0.05-0.01,0.04,0.02,0.05c0.01,0.03,0-0.04,0.03,0.07l0.15,0.45c0.41,1.21,1.17,2.46,2.18,3.41l2.02,1.89l2.37-1.3
		c0.86-0.48,2.28-0.8,3.92-1.01l0.06,0.89l1.47,1.05c0.13,0.09,0.43,0.34,0.65,0.52c0.24,0.2,0.48,0.41,0.71,0.63
		c0.45,0.43,0.89,0.88,1.27,1.34c0.78,0.91,1.32,1.87,1.57,2.64c0.04,0.19,0.09,0.37,0.12,0.54l0.07,0.93
		c0.04,0.31,0.03,0.58,0.11,0.92c0.07,0.34,0.15,0.68,0.24,1.02c0.24,0.72,0.55,1.45,1.05,2.13c1,1.38,2.34,2.16,3.36,2.61
		c1.06,0.47,1.89,0.68,2.71,0.92c1.58,0.43,2.92,0.76,4.2,1.21c1.23,0.43,2.55,0.99,3.76,1.6c1.22,0.62,2.36,1.31,3.44,2.08
		c0.54,0.38,1.05,0.79,1.59,1.24l0.93,0.78c0.2,0.17,0.4,0.33,0.77,0.58l0.11,0.07c0.13,0.34,0.3,0.81,0.43,1.28
		c0.34,1.15,0.65,2.41,0.94,3.67c0.59,2.53,1.07,5.13,1.56,7.71l0.46,2.46l2.39,0.56l1.92,0.45l-0.17,0.17l-1.68,1.64l-3.37,3.26
		c-2.25,2.16-4.52,4.3-6.77,6.35c-1.12,1.03-2.24,2.03-3.3,2.93l-0.76,0.62c-0.14,0.12-0.21,0.16-0.29,0.22l-0.09,0.07l0.17-0.06
		c-0.12,0.05-0.23,0.12-0.33,0.19l-0.06,0.03l0.06-0.04l0.16-0.12l-0.61,0.22c-2.81,1.03-5.67,1.97-8.59,2.86
		c-5.83,1.77-11.86,3.29-18,4.86c-3.07,0.78-6.17,1.58-9.29,2.42l-4.51,1.22c-1.45,0.39-2.92,0.75-4.4,1.1
		c-5.91,1.4-11.99,2.52-18.17,3.59c-6.16,1.08-12.22,2-18.36,2.71c-6.12,0.71-12.26,1.22-18.39,1.49
		c-6.19,0.24-12.5,0.41-18.73,0.47c-12.49,0.12-24.95-0.09-37.33-1c-3.1-0.21-6.18-0.49-9.27-0.79l-9.42-0.99l-18.75-1.97
		c-6.02-0.72-11.98-1.8-17.82-3.29c-1.46-0.37-2.92-0.77-4.36-1.19l-2.23-0.67c-0.84-0.25-1.67-0.48-2.5-0.7
		c-3.31-0.87-6.46-1.5-9.4-2.19c-2.93-0.69-5.66-1.44-8.07-2.47c-0.63-0.26-1.13-0.52-1.8-0.83c-0.78-0.38-1.55-0.75-2.32-1.1
		c-1.55-0.69-3.07-1.32-4.59-1.89c-3-1.15-5.92-2.13-8.69-3.14c-1.39-0.51-2.74-1.04-4.07-1.59c-0.34-0.13-0.66-0.29-0.99-0.43
		l-0.25-0.1l-0.13-0.06l-0.06-0.02v0.01c-0.01,0.03-0.17-0.05-0.41-0.19c-0.25-0.14-0.53-0.31-0.97-0.52
		c-0.44-0.21-1-0.46-1.86-0.59c-0.24-0.04-0.5-0.06-0.78-0.04l-1.07-1.13l0.24,0.41l-0.53-0.72l0.29,0.31l-3.31-5.75
		c0,0,4.93,40.45,138.14,45.06c117.77,4.08,153.91-36.24,160.71-45.64C406.32,383.31,405.77,382.48,405.19,381.71z"/>
</g>
</svg>
