<svg width="230" height="70" viewBox="0 0 230 70" fill="none" xmlns="http://www.w3.org/2000/svg">
<path d="M230 0H0V70H230V0Z" fill="#3B425F"/>
<path d="M112.28 0.450012L99.1 69.55H230V0.450012H112.28Z" fill="#5C8FF2"/>
<path d="M226 4V66H4V4H226ZM230 0H0V70H230V0Z" fill="white"/>
<path d="M139.68 38.19L135.37 59.72H129.4L123.22 49.69L121.22 59.72H114.15L118.46 38.19H124.43L130.61 48.22L132.61 38.19H139.68Z" fill="#FFFF31"/>
<path d="M149.21 43.66L148.72 46.18H157.82L156.77 51.41H147.64L147.09 54.24H157.88L156.77 59.71H138.87L143.18 38.18H160.68L159.57 43.65H149.21V43.66Z" fill="#FFFF31"/>
<path d="M198.6 38.19L187.4 59.72H179.62L178.39 48.37L172.49 59.72H164.71L162.13 38.19H169.3L170.68 50.46L177.08 38.19H183.75L184.98 50.65L191.47 38.19H198.6Z" fill="#FFFF31"/>
<path d="M199.18 59.61C197.54 59.21 196.19 58.68 195.12 58.03L197.92 52.68C200.24 54.01 202.66 54.68 205.18 54.68C206.1 54.68 206.81 54.57 207.3 54.34C207.79 54.11 208.04 53.81 208.04 53.42C208.04 53.05 207.79 52.75 207.29 52.53C206.79 52.3 205.99 52.06 204.91 51.79C203.47 51.42 202.28 51.05 201.34 50.67C200.4 50.29 199.57 49.71 198.86 48.92C198.15 48.13 197.8 47.09 197.8 45.8C197.8 44.18 198.24 42.76 199.11 41.54C199.98 40.32 201.24 39.38 202.88 38.71C204.52 38.04 206.46 37.71 208.69 37.71C210.29 37.71 211.78 37.87 213.16 38.19C214.54 38.51 215.74 38.96 216.74 39.56L214.13 44.85C213.29 44.32 212.36 43.92 211.35 43.65C210.33 43.38 209.29 43.25 208.23 43.25C207.23 43.25 206.45 43.39 205.89 43.68C205.33 43.97 205.06 44.31 205.06 44.69C205.06 45.07 205.31 45.39 205.81 45.61C206.31 45.84 207.14 46.08 208.29 46.35C209.68 46.68 210.86 47.03 211.81 47.4C212.76 47.77 213.59 48.34 214.29 49.12C214.99 49.9 215.34 50.92 215.34 52.2C215.34 53.8 214.9 55.2 214.02 56.41C213.14 57.62 211.88 58.56 210.24 59.22C208.6 59.89 206.67 60.22 204.46 60.22C202.58 60.21 200.82 60.01 199.18 59.61Z" fill="#FFFF31"/>
<path d="M126.5 31.81C124.83 31 123.54 29.87 122.62 28.41C121.71 26.95 121.25 25.28 121.25 23.4C121.25 20.9 121.83 18.67 122.99 16.73C124.15 14.78 125.76 13.26 127.82 12.16C129.88 11.06 132.22 10.51 134.85 10.51C136.92 10.51 138.76 10.88 140.35 11.63C141.95 12.38 143.14 13.44 143.92 14.81L138.69 18.9C137.73 17.22 136.29 16.38 134.38 16.38C133.25 16.38 132.25 16.66 131.37 17.21C130.49 17.76 129.8 18.54 129.31 19.53C128.82 20.52 128.57 21.66 128.57 22.93C128.57 24.2 128.98 25.22 129.78 25.99C130.59 26.76 131.66 27.14 132.99 27.14C134.82 27.14 136.41 26.31 137.79 24.65L142.06 28.74C140.81 30.28 139.39 31.37 137.8 32.03C136.21 32.69 134.37 33.01 132.28 33.01C130.11 33.02 128.18 32.62 126.5 31.81Z" fill="white"/>
<path d="M154.81 16.48L154.32 19H163.42L162.37 24.23H153.24L152.69 27.06H163.48L162.37 32.53H144.47L148.79 11H166.29L165.18 16.47H154.81V16.48Z" fill="white"/>
<path d="M171.02 11H178.28L173.97 32.53H166.71L171.02 11Z" fill="white"/>
<path d="M186.86 16.63H180.56L181.7 11H201.57L200.43 16.63H194.13L190.96 32.53H183.7L186.86 16.63Z" fill="white"/>
<path d="M68.6001 24.85H51.3401V38.25H68.6001V24.85Z" fill="#5C8FF2"/>
<path d="M73.6601 16.94H54.23L58.4901 9.56999C58.9001 8.84999 58.66 7.92999 57.94 7.51999C57.22 7.09999 56.3 7.34999 55.89 8.06999L51.34 15.94L46.8 8.06999C46.38 7.34999 45.47 7.09999 44.75 7.51999C44.03 7.92999 43.7901 8.84999 44.2001 9.56999L48.4501 16.94H29.0301C26.5601 16.94 24.55 18.95 24.55 21.42V50.79C24.55 53.26 26.5601 55.27 29.0301 55.27H73.6601C76.1301 55.27 78.14 53.26 78.14 50.79V21.42C78.14 18.95 76.1301 16.94 73.6601 16.94ZM74.14 50.79C74.14 51.06 73.9201 51.27 73.6601 51.27H29.0301C28.7601 51.27 28.55 51.06 28.55 50.79V21.42C28.55 21.15 28.7601 20.94 29.0301 20.94H73.6601C73.9201 20.94 74.14 21.15 74.14 21.42V50.79ZM63.16 61.36H41.96C41.05 61.36 40.32 60.62 40.32 59.72C40.32 58.81 41.06 58.08 41.96 58.08H63.1501C64.0601 58.08 64.7901 58.82 64.7901 59.72C64.8001 60.62 64.06 61.36 63.16 61.36Z" fill="white"/>
</svg>
